<svg version="1.1" xmlns="http://www.w3.org/2000/svg" xmlns:xlink="http://www.w3.org/1999/xlink" width="396.27313" height="137.88005" viewBox="0,0,396.27313,137.88005"><g transform="translate(-41.36295,-111.05998)"><g data-paper-data="{&quot;isPaintingLayer&quot;:true}" fill-rule="nonzero" stroke="none" stroke-width="1" stroke-linejoin="miter" stroke-miterlimit="10" stroke-dasharray="" stroke-dashoffset="0" style="mix-blend-mode: normal"><path d="M100.21032,201.86731v-76.67187h19.40625c6.69792,0 11.90625,0.83854 15.625,2.51563c3.71875,1.66666 6.33334,4.28646 7.84375,7.85938c1.52084,3.5625 2.28125,8.18229 2.28125,13.85938v27.82813c0,5.73959 -0.76041,10.42709 -2.28125,14.0625c-1.51041,3.625 -4.10937,6.29166 -7.79687,8c-3.6875,1.69791 -8.84896,2.54688 -15.48437,2.54688zM117.16344,190.13293h2.64063c2.59375,0 4.45833,-0.38021 5.59375,-1.14062c1.13541,-0.76041 1.84375,-1.89584 2.125,-3.40625c0.28125,-1.51041 0.42188,-3.40104 0.42188,-5.67187v-33.42187c0,-2.27084 -0.17187,-4.09896 -0.51562,-5.48437c-0.34375,-1.39584 -1.08334,-2.40625 -2.21875,-3.03125c-1.13541,-0.63541 -2.96875,-0.95312 -5.5,-0.95312h-2.54687z" fill="#004cad" stroke-linecap="butt"/><path d="M374.26626,201.86731v-76.67187h21.10938c5.17708,0 9.65625,0.56771 13.4375,1.70313c3.79167,1.13541 6.74479,3.17188 8.85938,6.10938c2.11458,2.9375 3.17188,7.08334 3.17188,12.4375c0,3.15625 -0.25521,5.96875 -0.76562,8.4375c-0.5,2.45834 -1.42708,4.58854 -2.78125,6.39063c-1.35417,1.79166 -3.29687,3.28646 -5.82812,4.48438l10.51563,37.10938l15.60938,32.29166c0,0 -6.69026,-1.94221 -13.26897,-5.72863c-5.48926,-3.15938 -9.53695,-6.66389 -11.87741,-10.41855c-1.07256,-1.72064 -3.33853,-5.41603 -4.4065,-7.92844c-1.48753,-3.49946 -2.99759,-7.28063 -4.20649,-11.58391c-4.1006,-14.5968 -7.78751,-30.9915 -7.78751,-30.9915h-4.82812v34.35938zM391.76107,157.75793h4.73438c2.39583,0 4.25521,-0.42709 5.57813,-1.28125c1.32292,-0.85416 2.25,-2.08334 2.78125,-3.6875c0.54167,-1.61459 0.8125,-3.55729 0.8125,-5.82812c0,-3.28125 -0.59896,-5.83334 -1.79687,-7.65625c-1.19792,-1.83334 -3.40625,-2.75 -6.625,-2.75h-5.48437z" fill="#004cad" stroke-linecap="butt"/><path d="M224.39921,201.86731v-76.67187h25.75c4.60416,0 8.39063,0.86979 11.35938,2.60938c2.96875,1.72916 5.17708,4.25 6.625,7.5625c1.45833,3.3125 2.1875,7.33854 2.1875,12.07813c0,5.92709 -0.97917,10.45313 -2.9375,13.57813c-1.95833,3.125 -4.60937,5.28646 -7.95312,6.48438c-3.34375,1.19791 -7.09896,1.79688 -11.26563,1.79688h-6.8125v32.5625zM241.35234,157.47668h5.67188c2.08334,0 3.66146,-0.38021 4.73438,-1.14062c1.07291,-0.76041 1.78125,-1.89584 2.125,-3.40625c0.35417,-1.51041 0.53125,-3.4375 0.53125,-5.78125c0,-1.94791 -0.14583,-3.66146 -0.4375,-5.14062c-0.28125,-1.48959 -0.95834,-2.67709 -2.03125,-3.5625c-1.07291,-0.88541 -2.74479,-1.32812 -5.01562,-1.32812h-5.57812z" fill="#004cad" stroke-linecap="butt"/><path d="M278.44792,125.19543h25.74997c4.60417,0 8.39063,0.86979 11.35938,2.60938c2.96875,1.72916 5.17708,4.25 6.625,7.5625c1.45833,3.3125 2.1875,7.33854 2.1875,12.07813c0,5.92709 -0.97917,10.45313 -2.9375,13.57813c-1.95833,3.125 -4.60937,5.28646 -7.95312,6.48438c-3.34375,1.19791 -7.09896,1.79688 -11.26562,1.79688h-6.8125v32.5625h-16.9531zM295.40101,157.47668h5.67188c2.08333,0 3.66146,-0.38021 4.73438,-1.14062c1.07292,-0.76041 1.78125,-1.89584 2.125,-3.40625c0.35417,-1.51041 0.53125,-3.4375 0.53125,-5.78125c0,-1.94791 -0.14583,-3.66146 -0.4375,-5.14062c-0.28125,-1.48959 -0.95833,-2.67709 -2.03125,-3.5625c-1.07292,-0.88541 -2.74479,-1.32812 -5.01562,-1.32812h-5.57812z" fill="#004cad" stroke-linecap="butt"/><path d="M45.64674,202.06731l14.875,-41.26562c0,0 -5.09291,-22.1327 -15.20312,-42.80625c-1.82565,-3.73311 -3.95566,-6.71394 -3.95566,-6.71394c0,0 3.19432,-0.54394 5.04079,0.07291c0.21527,0.07191 0.83756,0.94693 1.01857,1.04831c1.86771,1.04599 1.23808,2.98524 3.77977,4.99784c5.35077,4.23694 5.53408,3.80138 11.51653,11.59488c2.70455,3.52329 8.02187,17.13438 8.02187,17.13438l6.8125,-20.73437h14.10938l-13.45312,39.84375l14.96875,36.82813h-15.90625l-9.375,-22.90625l-8.23437,22.90625z" fill="#004cad" stroke-linecap="butt"/><path d="M332.49659,201.86731v-76.67187h34.46875v11.54688h-17.51562v19.03125h13.34375v11.73438h-13.34375v22.90625h17.70313v11.45313z" fill="#004cad" stroke-linecap="butt"/><path d="M151.99964,201.86731v-10.21875l18.73438,-55h-17.89062v-11.45312h34.54688v9.5625l-19.01562,55.65625h19.20313v11.45313z" fill="#004cad" stroke-linecap="butt"/><path d="M196.01705,201.86731v-76.67187h16.9375v76.67188z" fill="#004cad" stroke-linecap="butt"/><path d="M105.21032,201.86731v-76.67187h19.40625c6.69792,0 11.90625,0.83854 15.625,2.51563c3.71875,1.66666 6.33334,4.28646 7.84375,7.85938c1.52084,3.5625 2.28125,8.18229 2.28125,13.85938v27.82813c0,5.73959 -0.76041,10.42709 -2.28125,14.0625c-1.51041,3.625 -4.10937,6.29166 -7.79687,8c-3.6875,1.69791 -8.84896,2.54688 -15.48437,2.54688zM122.16344,190.13293h2.64063c2.59375,0 4.45833,-0.38021 5.59375,-1.14062c1.13541,-0.76041 1.84375,-1.89584 2.125,-3.40625c0.28125,-1.51041 0.42188,-3.40104 0.42188,-5.67187v-33.42187c0,-2.27084 -0.17187,-4.09896 -0.51562,-5.48437c-0.34375,-1.39584 -1.08334,-2.40625 -2.21875,-3.03125c-1.13541,-0.63541 -2.96875,-0.95312 -5.5,-0.95312h-2.54687z" fill="#0096ff" stroke-linecap="butt"/><path d="M380.55793,201.99231v-76.67187h21.10938c5.17708,0 9.65625,0.56771 13.4375,1.70313c3.79167,1.13541 6.74479,3.17188 8.85938,6.10938c2.11458,2.9375 3.17188,7.08334 3.17188,12.4375c0,3.15625 -0.25521,5.96875 -0.76562,8.4375c-0.5,2.45834 -1.42708,4.58854 -2.78125,6.39063c-1.35417,1.79166 -3.29687,3.28646 -5.82812,4.48438l10.51563,37.10938l9.35938,32.29166c0,0 -14.59987,-10.52645 -18.205,-14.91012c-1.89856,-2.30857 -4.31939,-5.48496 -5.83245,-8.72017c-2.32894,-4.97971 -3.42001,-10.0988 -4.25394,-12.40716c-4.67162,-15.3537 -7.00547,-30.61358 -7.00547,-30.61358h-4.82812v34.35938zM396.76107,158.00793h4.73438c2.39583,0 4.25521,-0.42709 5.57813,-1.28125c1.32292,-0.85416 2.25,-2.08334 2.78125,-3.6875c0.54167,-1.61459 0.8125,-3.55729 0.8125,-5.82812c0,-3.28125 -0.59896,-5.83334 -1.79687,-7.65625c-1.19792,-1.83334 -3.40625,-2.75 -6.625,-2.75h-5.48437z" fill="#0096ff" stroke-linecap="butt"/><path d="M229.39921,201.86731v-76.67187h25.75c4.60417,0 8.39063,0.86979 11.35938,2.60938c2.96875,1.72916 5.17708,4.25 6.625,7.5625c1.45833,3.3125 2.1875,7.33854 2.1875,12.07813c0,5.92709 -0.97917,10.45313 -2.9375,13.57813c-1.95833,3.125 -4.60937,5.28646 -7.95312,6.48438c-3.34375,1.19791 -7.09896,1.79688 -11.26562,1.79688h-6.8125v32.5625zM246.35234,157.47668h5.67188c2.08334,0 3.66146,-0.38021 4.73438,-1.14062c1.07292,-0.76041 1.78125,-1.89584 2.125,-3.40625c0.35417,-1.51041 0.53125,-3.4375 0.53125,-5.78125c0,-1.94791 -0.14583,-3.66146 -0.4375,-5.14062c-0.28125,-1.48959 -0.95833,-2.67709 -2.03125,-3.5625c-1.07292,-0.88541 -2.74479,-1.32812 -5.01563,-1.32812h-5.57812z" fill="#0096ff" stroke-linecap="butt"/><path d="M283.44792,125.19543h25.74997c4.60417,0 8.39063,0.86979 11.35938,2.60938c2.96875,1.72916 5.17708,4.25 6.625,7.5625c1.45833,3.3125 2.1875,7.33854 2.1875,12.07813c0,5.92709 -0.97917,10.45313 -2.9375,13.57813c-1.95833,3.125 -4.60937,5.28646 -7.95312,6.48438c-3.34375,1.19791 -7.09896,1.79688 -11.26562,1.79688h-6.8125v32.5625h-16.9531zM300.40101,157.47668h5.67188c2.08333,0 3.66146,-0.38021 4.73438,-1.14062c1.07292,-0.76041 1.78125,-1.89584 2.125,-3.40625c0.35417,-1.51041 0.53125,-3.4375 0.53125,-5.78125c0,-1.94791 -0.14583,-3.66146 -0.4375,-5.14062c-0.28125,-1.48959 -0.95833,-2.67709 -2.03125,-3.5625c-1.07292,-0.88541 -2.74479,-1.32812 -5.01562,-1.32812h-5.57812z" fill="#0096ff" stroke-linecap="butt"/><path d="M50.64674,202.06731l14.875,-41.26562c0,0 -5.09291,-22.1327 -15.20312,-42.80625c-1.82565,-3.73311 -3.95566,-6.71394 -3.95566,-6.71394c0,0 4.93812,2.23826 9.83913,6.11906c5.35077,4.23694 5.53408,3.80138 11.51653,11.59488c2.70455,3.52329 8.02187,17.13438 8.02187,17.13438l6.8125,-20.73437h14.10938l-13.45312,39.84375l14.96875,36.82813h-15.90625l-9.375,-22.90625l-8.23437,22.90625z" fill="#0096ff" stroke-linecap="butt"/><path d="M337.49659,201.86731v-76.67187h34.46875v11.54688h-17.51562v19.03125h13.34375v11.73438h-13.34375v22.90625h17.70313v11.45313z" fill="#0096ff" stroke-linecap="butt"/><path d="M156.99964,201.86731v-10.21875l18.73438,-55h-17.89062v-11.45312h34.54688v9.5625l-19.01562,55.65625h19.20313v11.45313z" fill="#0096ff" stroke-linecap="butt"/><path d="M201.01705,201.86731v-76.67187h16.9375v76.67188z" fill="#0096ff" stroke-linecap="butt"/><path d="M172.05862,248.94003c-1.94717,0 -3.5092,-0.41725 -4.68606,-1.25176c-1.15546,-0.8345 -2.00066,-2.04346 -2.5356,-3.62688c-0.51354,-1.58342 -0.77031,-3.4878 -0.77031,-5.71314v-10.36709c0,-2.26814 0.23538,-4.20462 0.70612,-5.80943c0.47074,-1.60482 1.31594,-2.82447 2.53561,-3.65897c1.21966,-0.83451 2.91006,-1.25176 5.07121,-1.25176c1.94717,0 3.5092,0.32097 4.68606,0.96289c1.19826,0.64192 2.06486,1.6369 2.5998,2.98495c0.53494,1.34805 0.8024,3.03845 0.8024,5.07121v1.15546h-4.04413v-0.96289c0,-1.34805 -0.09629,-2.45002 -0.28887,-3.30591c-0.17118,-0.8559 -0.53494,-1.48713 -1.09127,-1.89368c-0.53494,-0.42795 -1.39084,-0.64192 -2.5677,-0.64192c-1.28385,0 -2.21464,0.28887 -2.79238,0.8666c-0.57773,0.57773 -0.94149,1.38014 -1.09127,2.40722c-0.12839,1.00568 -0.19258,2.15045 -0.19258,3.4343v11.49047c0,1.47643 0.10699,2.71748 0.32096,3.72317c0.23538,0.98428 0.65263,1.7225 1.25176,2.21465c0.62053,0.47075 1.48713,0.70612 2.5998,0.70612c1.13407,0 2.00067,-0.26747 2.5998,-0.80241c0.62053,-0.53494 1.04847,-1.32664 1.28385,-2.37512c0.23538,-1.04848 0.35306,-2.34303 0.35306,-3.88365v-2.15045h-3.94785v-3.08124h7.86359v15.37412h-2.72818l-0.41725,-3.56269c-0.42795,1.15546 -1.08058,2.10765 -1.95788,2.85657c-0.8559,0.72751 -2.04346,1.09127 -3.56268,1.09127zM192.25411,248.55488l6.57974,-31.0371h4.17252l6.64393,31.0371h-4.10832l-1.41224,-7.83149h-6.32296l-1.50853,7.83149zM198.3845,237.64214h5.1675l-2.5998,-13.99398zM221.48979,248.55488l0.57774,-31.0371h4.23671l5.48846,25.16349l5.52056,-25.16349h4.20462l0.57773,31.0371h-3.4664l-0.35306,-22.53159l-5.26379,22.53159h-2.43931l-5.2317,-22.53159l-0.32097,22.53159zM255.62308,248.55488v-31.0371h12.0361v3.20963h-7.7031v10.27081h6.25878v3.08124h-6.25878v11.36208h7.7994v3.11334zM287.31444,248.90794c-1.776,0 -3.26313,-0.38515 -4.46139,-1.15546c-1.17687,-0.77031 -2.07556,-1.82949 -2.69609,-3.17754c-0.62053,-1.34805 -0.93079,-2.38582 -1.01638,-4.18321l5.80942,-1.54062c0.08559,1.09127 -1.77599,2.12905 -1.51922,3.15613c0.27817,1.02708 0.71681,1.86158 1.31594,2.50351c0.62053,0.64193 1.47643,0.96289 2.5677,0.96289c1.13407,0 1.98996,-0.31026 2.5677,-0.93079c0.57774,-0.62053 0.8666,-1.51923 0.8666,-2.69609c0,-1.41224 -0.32097,-2.5463 -0.96289,-3.4022c-0.64193,-0.8559 -1.45503,-1.7118 -2.43932,-2.5677l-5.1996,-4.58977c-1.02708,-0.8987 -1.78669,-1.87228 -2.27884,-2.92076c-0.47075,-1.06987 -0.70612,-2.38583 -0.70612,-3.94785c0,-2.26814 0.65263,-4.02274 1.95788,-5.26379c1.30525,-1.26245 3.08125,-1.89368 5.32799,-1.89368c1.21966,0 2.28953,0.16048 3.20963,0.48145c0.94149,0.29957 1.7225,0.78101 2.34303,1.44433c0.64193,0.66332 1.14476,1.50853 1.50852,2.53561c0.36376,1.00568 0.97359,2.64315 1.10198,3.9912l-4.17252,1.1549c-0.08559,-1.02708 -0.09629,-2.5891 -0.33166,-3.445c-0.21398,-0.8559 -0.60983,-1.54062 -1.18757,-2.05416c-0.57774,-0.53494 -1.40153,-0.80241 -2.47141,-0.80241c-1.06988,0 -1.90438,0.28887 -2.50351,0.8666c-0.59913,0.57773 -0.8987,1.43364 -0.8987,2.56771c0,0.94149 0.14979,1.72249 0.44935,2.34302c0.32097,0.59913 0.84521,1.21966 1.57272,1.86158l5.23169,4.58977c1.17687,1.02708 2.21465,2.25744 3.11334,3.69107c0.89869,1.41224 1.34805,3.08125 1.34805,5.00702c0,1.54062 -0.32096,2.86727 -0.96289,3.97994c-0.64193,1.11267 -1.51923,1.96857 -2.6319,2.5677c-1.11267,0.57774 -2.39652,0.8666 -3.85155,0.8666z" fill="#004cad" stroke-linecap="square"/><path d="M174.11484,248.94003c-1.94717,0 -3.5092,-0.41725 -4.68606,-1.25176c-1.15546,-0.8345 -2.00066,-2.04346 -2.53561,-3.62688c-0.51354,-1.58342 -0.77031,-3.4878 -0.77031,-5.71314v-10.36709c0,-2.26814 0.23538,-4.20462 0.70612,-5.80943c0.47074,-1.60482 1.31594,-2.82447 2.5356,-3.65897c1.21966,-0.83451 2.91006,-1.25176 5.07121,-1.25176c1.94717,0 3.5092,0.32097 4.68606,0.96289c1.19826,0.64192 2.06486,1.6369 2.5998,2.98495c0.53494,1.34805 0.8024,3.03845 0.8024,5.07121v1.15546h-4.04413v-0.96289c0,-1.34805 -0.09629,-2.45002 -0.28887,-3.30591c-0.17118,-0.8559 -0.53494,-1.48713 -1.09127,-1.89368c-0.53494,-0.42795 -1.39084,-0.64192 -2.5677,-0.64192c-1.28385,0 -2.21464,0.28887 -2.79237,0.8666c-0.57773,0.57773 -0.94149,1.38014 -1.09128,2.40722c-0.12839,1.00568 -0.19257,2.15045 -0.19257,3.4343v11.49047c0,1.47643 0.10698,2.71748 0.32096,3.72317c0.23538,0.98428 0.65263,1.7225 1.25176,2.21465c0.62053,0.47075 1.48713,0.70612 2.5998,0.70612c1.13407,0 2.00067,-0.26747 2.5998,-0.80241c0.62053,-0.53494 1.04847,-1.32664 1.28385,-2.37512c0.23538,-1.04848 0.35306,-2.34303 0.35306,-3.88365v-2.15045h-3.94785v-3.08124h7.86359v15.37412h-2.72818l-0.41725,-3.56269c-0.42795,1.15546 -1.08058,2.10765 -1.95788,2.85657c-0.8559,0.72751 -2.04346,1.09127 -3.56268,1.09127zM194.31032,248.55488l6.57974,-31.0371h4.17252l6.64393,31.0371h-4.10833l-1.41223,-7.83149h-6.32297l-1.50852,7.83149zM200.44071,237.64214h5.16751l-2.5998,-13.99398zM223.546,248.55488l0.57774,-31.0371h4.23671l5.48846,25.16349l5.52056,-25.16349h4.20461l0.57773,31.0371h-3.4664l-0.35306,-22.53159l-5.26379,22.53159h-2.43931l-5.2317,-22.53159l-0.32097,22.53159zM257.67928,248.55488v-31.0371h12.0361v3.20963h-7.7031v10.27081h6.25878v3.08124h-6.25878v11.36208h7.7994v3.11334zM289.37065,248.90794c-1.776,0 -3.26313,-0.38515 -4.46139,-1.15546c-1.17687,-0.77031 -2.07556,-1.82949 -2.69609,-3.17754c-0.62053,-1.34805 -0.97358,-2.92076 -1.05917,-4.71815l3.81946,-1.02708c0.08559,1.09127 0.25677,2.15045 0.51354,3.17753c0.27817,1.02708 0.71682,1.86158 1.31595,2.50351c0.62053,0.64193 1.47643,0.96289 2.5677,0.96289c1.13407,0 1.98996,-0.31026 2.5677,-0.93079c0.57774,-0.62053 0.8666,-1.51923 0.8666,-2.69609c0,-1.41224 -0.32097,-2.5463 -0.96289,-3.4022c-0.64193,-0.8559 -1.45503,-1.7118 -2.43932,-2.5677l-5.1996,-4.58977c-1.02708,-0.8987 -1.78669,-1.87228 -2.27884,-2.92076c-0.47075,-1.06987 -0.70612,-2.38583 -0.70612,-3.94785c0,-2.26814 0.65263,-4.02274 1.95788,-5.26379c1.30525,-1.26245 3.08125,-1.89368 5.32799,-1.89368c1.21966,0 2.28953,0.16048 3.20963,0.48145c0.94149,0.29957 1.7225,0.78101 2.34303,1.44433c0.64193,0.66332 1.14476,1.50853 1.50852,2.53561c0.36376,1.00568 0.60983,2.18254 0.73822,3.53059l-3.65897,0.99499c-0.08559,-1.02708 -0.24607,-1.96858 -0.48145,-2.82448c-0.21398,-0.8559 -0.60983,-1.54062 -1.18757,-2.05416c-0.57774,-0.53494 -1.40153,-0.80241 -2.47141,-0.80241c-1.06988,0 -1.90438,0.28887 -2.50351,0.8666c-0.59913,0.57773 -0.8987,1.43364 -0.8987,2.56771c0,0.94149 0.14979,1.72249 0.44935,2.34302c0.32097,0.59913 0.84521,1.21966 1.57272,1.86158l5.23169,4.58977c1.17687,1.02708 2.21465,2.25744 3.11334,3.69107c0.89869,1.41224 1.34804,3.08125 1.34804,5.00702c0,1.54062 -0.32096,2.86727 -0.96289,3.97994c-0.64193,1.11267 -1.51923,1.96857 -2.6319,2.5677c-1.11267,0.57774 -2.39652,0.8666 -3.85155,0.8666z" fill="#0096ff" stroke-linecap="square"/></g></g></svg>
